<svg width="50" height="60" viewBox="0 0 50 60" fill="none" xmlns="http://www.w3.org/2000/svg">
<path d="M41.4409 33.6312C39.7904 25.3249 47.6745 20.4534 47.6745 20.4534C47.6745 20.4534 44.6028 16.0093 39.4403 14.866C34.2804 13.7202 31.6979 15.1517 29.1204 16.2254C26.5405 17.3018 25.2531 17.3018 25.2531 17.3018C21.53 17.3018 18.8083 13.3597 11.7148 15.1544C6.82782 16.3877 1.68328 22.0291 0.753775 28.7623C-0.175725 35.498 1.8301 44.0927 5.69742 50.7538C9.56475 57.42 13.5043 59.9252 16.3004 59.9973C19.0967 60.0668 21.8878 57.9941 25.2531 57.4894C28.621 56.9899 30.6937 58.71 33.9971 59.6395C37.2877 60.5665 38.4412 59.7064 42.2313 56.4827C46.0317 53.259 49.4717 44.0129 49.4717 44.0129C49.4717 44.0129 43.0914 41.9427 41.4409 33.6312Z" fill="white"/>
<path d="M34.1337 9.49327C37.7899 5.76763 36.5514 0 36.5514 0C36.5514 0 31.4173 0.901211 27.9773 4.48015C24.5399 8.06172 25.1089 13.7186 25.1089 13.7186C25.1089 13.7186 30.4774 13.2165 34.1337 9.49327Z" fill="white"/>
</svg>
