<svg width="19" height="20" viewBox="0 0 19 20" fill="none" xmlns="http://www.w3.org/2000/svg">
<path d="M9.48901 0.5C9.14844 0.5 8.80811 0.518309 8.46948 0.554807C8.1591 0.58651 7.85253 0.638503 7.55008 0.701593C7.49155 0.713838 7.43298 0.726757 7.37445 0.740271C5.59245 1.14599 3.96529 2.0571 2.68809 3.36434C2.56932 3.48608 2.45305 3.61143 2.33935 3.74034C-1.11075 7.70118 -0.696703 13.7089 3.26417 17.159C7.05619 20.4621 12.7641 20.2423 16.291 16.6575C16.41 16.5358 16.5262 16.4104 16.6397 16.2815C18.1623 14.5476 19.0013 12.3185 19 10.0109C19 4.75813 14.7418 0.49996 9.48901 0.5ZM3.11069 3.83989C3.16078 3.7879 3.21277 3.73812 3.26382 3.68772C3.32278 3.6297 3.38143 3.57137 3.44167 3.51525C3.49461 3.46579 3.54914 3.41824 3.60336 3.37005C3.66454 3.31584 3.72541 3.26163 3.78819 3.20932C3.84335 3.16271 3.9001 3.11801 3.95653 3.07299C4.01994 3.02227 4.08334 2.97154 4.14865 2.92272C4.20635 2.87929 4.265 2.83712 4.32397 2.79591C4.3896 2.74898 4.45554 2.7008 4.52243 2.65705C4.58235 2.61647 4.6429 2.57715 4.70377 2.53816C4.77162 2.49473 4.83978 2.45193 4.90858 2.41135C4.97052 2.37437 5.03285 2.33799 5.09562 2.30229C5.16581 2.26234 5.23627 2.22335 5.30709 2.1853C5.37049 2.1515 5.4339 2.11841 5.4973 2.08607C5.56959 2.04961 5.6425 2.01442 5.71574 1.97987C5.77915 1.94975 5.84509 1.91963 5.9104 1.8911C5.9849 1.85939 6.06035 1.82769 6.13581 1.79599C6.20143 1.76904 6.26674 1.74273 6.333 1.71736C6.40972 1.6882 6.48739 1.66093 6.56507 1.63367C6.63133 1.61052 6.69759 1.58738 6.7648 1.5655C6.84374 1.54014 6.92331 1.51668 7.0032 1.49354C7.0701 1.4742 7.13636 1.45423 7.20357 1.43616C7.22925 1.4295 7.25493 1.42411 7.28061 1.41745C6.34219 2.32864 5.64579 3.45949 5.25446 4.70761C4.50198 4.50915 3.77352 4.22881 3.08216 3.87159C3.09262 3.8605 3.1015 3.8494 3.11069 3.83989ZM2.6548 4.35031C3.41635 4.76293 4.22391 5.08432 5.06075 5.30775C4.65051 6.73423 4.43517 8.20966 4.42066 9.69389H0.619454C0.688528 7.73665 1.40427 5.85752 2.6548 4.35031ZM2.6548 15.6715C1.40435 14.1643 0.688607 12.2851 0.619454 10.3279H4.42066C4.43517 11.8122 4.65047 13.2876 5.06075 14.7141C4.22395 14.9376 3.41639 15.2589 2.6548 15.6715ZM7.20167 18.5869C7.13763 18.5708 7.07137 18.5499 7.00542 18.5305C6.92521 18.5071 6.84469 18.4836 6.76543 18.4579C6.69854 18.4364 6.63259 18.4132 6.56665 18.3901C6.48866 18.3631 6.41067 18.3355 6.33363 18.3061C6.26769 18.281 6.2027 18.2547 6.13739 18.2281C6.06162 18.1964 5.98585 18.1647 5.91071 18.133C5.84604 18.1044 5.78168 18.0751 5.71764 18.0448C5.64377 18.0099 5.57022 17.9744 5.49572 17.9377C5.43231 17.906 5.36891 17.8743 5.3055 17.8397C5.23385 17.8013 5.16284 17.762 5.09182 17.7215C5.02841 17.6863 4.96818 17.6501 4.90699 17.6133C4.83724 17.5715 4.76877 17.5284 4.70029 17.4843C4.64005 17.446 4.57981 17.407 4.52053 17.367C4.453 17.3214 4.38611 17.2738 4.31985 17.2262C4.26183 17.1847 4.20381 17.1432 4.14675 17.0994C4.08112 17.05 4.01677 16.9989 3.95273 16.9476C3.89661 16.9029 3.84081 16.8585 3.78597 16.8125C3.72256 16.7599 3.66137 16.705 3.59987 16.6505C3.54597 16.6026 3.49176 16.5554 3.43913 16.5066C3.37858 16.4502 3.31993 16.3915 3.26096 16.3335C3.20992 16.2831 3.15793 16.2333 3.10784 16.1816C3.09864 16.1718 3.08977 16.1617 3.08057 16.1521C3.7719 15.7948 4.50036 15.5143 5.25287 15.3158C5.64429 16.5639 6.34065 17.6947 7.27902 18.606C7.25334 18.5993 7.22735 18.5939 7.20167 18.5869ZM9.17202 18.8628C7.81544 18.67 6.62625 17.2541 5.87806 15.1633C6.95977 14.9211 8.06364 14.7912 9.17202 14.7756V18.8628ZM9.17202 14.1415C7.99623 14.157 6.82539 14.2966 5.67896 14.5581C5.28089 13.1827 5.0709 11.7597 5.05473 10.3279H9.17202V14.1415ZM9.17202 9.69389H5.05473C5.07086 8.26213 5.28085 6.83913 5.67896 5.46373C6.82539 5.72516 7.99627 5.86481 9.17202 5.88031V9.69389ZM9.17202 5.24625C8.0636 5.23079 6.95977 5.10085 5.87806 4.85851C6.62625 2.76769 7.81544 1.35183 9.17202 1.15907V5.24625ZM16.3233 4.35031C17.5738 5.85756 18.2895 7.73669 18.3586 9.69389H14.5574C14.5429 8.20966 14.3276 6.73423 13.9174 5.30775C14.7542 5.0842 15.5617 4.76285 16.3233 4.35031ZM11.7739 1.43457C11.8405 1.45106 11.9067 1.47198 11.9727 1.49132C12.0529 1.51478 12.1334 1.53824 12.2127 1.56392C12.2796 1.58548 12.3455 1.60862 12.4114 1.63176C12.4894 1.65871 12.5674 1.68629 12.6445 1.71578C12.7104 1.74082 12.7754 1.76714 12.8407 1.79377C12.9165 1.82547 12.9923 1.85717 13.0674 1.88888C13.1321 1.91741 13.1964 1.94678 13.2605 1.97701C13.3343 2.01189 13.4079 2.04739 13.4824 2.08417C13.5458 2.11587 13.6092 2.14758 13.6726 2.18213C13.7443 2.22049 13.8153 2.2598 13.8863 2.30038C13.9497 2.33558 14.0099 2.37172 14.0711 2.40849C14.1409 2.45034 14.2093 2.49346 14.2778 2.53752C14.3381 2.57589 14.3983 2.61488 14.4576 2.65483C14.5251 2.70048 14.5917 2.74772 14.6579 2.79527C14.7163 2.8368 14.7743 2.87865 14.8317 2.92208C14.897 2.97122 14.961 3.02227 15.0254 3.07363C15.0812 3.11801 15.1373 3.16239 15.1921 3.20868C15.2555 3.26131 15.3167 3.31615 15.3782 3.37068C15.4321 3.41856 15.4863 3.46579 15.539 3.51462C15.5995 3.57105 15.6582 3.6297 15.7171 3.68772C15.7682 3.73812 15.8202 3.7879 15.8703 3.83957C15.8795 3.8494 15.8883 3.85955 15.8975 3.86906C15.2062 4.22643 14.4777 4.50689 13.7252 4.70539C13.3331 3.45715 12.6358 2.32642 11.6965 1.41555C11.7222 1.42221 11.7482 1.4276 11.7739 1.43457ZM9.80608 1.15907C11.1627 1.35183 12.3518 2.76769 13.1 4.85851C12.0183 5.10073 10.9145 5.23067 9.80608 5.24625V1.15907ZM9.80608 5.88031C10.9819 5.86485 12.1527 5.7252 13.2991 5.46373C13.6972 6.83913 13.9072 8.26213 13.9234 9.69389H9.80608V5.88031ZM9.80608 10.3279H13.9234C13.9072 11.7597 13.6973 13.1827 13.2991 14.5581C12.1527 14.2967 10.9819 14.157 9.80608 14.1415V10.3279ZM9.80608 18.8628V14.7756C10.9145 14.791 12.0183 14.921 13.1 15.1633C12.3518 17.2541 11.1627 18.67 9.80608 18.8628ZM15.8674 16.1819C15.8173 16.2336 15.7656 16.2834 15.7146 16.3338C15.6556 16.3918 15.5967 16.4505 15.5361 16.5069C15.4835 16.556 15.4293 16.602 15.3754 16.6512C15.3139 16.7057 15.2527 16.7602 15.1899 16.8128C15.1344 16.8591 15.078 16.9038 15.0216 16.9488C14.9582 16.9996 14.8948 17.0503 14.8295 17.0991C14.7718 17.1426 14.7131 17.1847 14.6541 17.2259C14.5885 17.2729 14.5226 17.321 14.4557 17.3648C14.3958 17.4054 14.3352 17.4447 14.2743 17.4834C14.2065 17.5271 14.1381 17.5694 14.0692 17.6102C14.0058 17.6473 13.9452 17.6834 13.8828 17.7192C13.8126 17.7592 13.742 17.7982 13.671 17.8362C13.6076 17.87 13.5442 17.9031 13.4808 17.9354C13.4085 17.9719 13.3356 18.0071 13.2624 18.0417C13.199 18.0718 13.133 18.1019 13.0677 18.1304C12.9932 18.1621 12.9177 18.1938 12.8423 18.2255C12.7767 18.2522 12.7114 18.2788 12.6454 18.3038C12.5681 18.3333 12.4904 18.3609 12.4124 18.3879C12.3465 18.411 12.2805 18.4341 12.2136 18.4557C12.1344 18.4814 12.0551 18.5048 11.9743 18.528C11.908 18.5476 11.8414 18.5673 11.7745 18.5854C11.7489 18.592 11.7232 18.5974 11.6975 18.6041C12.6359 17.6929 13.3323 16.562 13.7236 15.3139C14.4761 15.5124 15.2046 15.7927 15.8959 16.1499C15.8855 16.1613 15.8766 16.1724 15.8674 16.1819ZM16.3233 15.6715C15.5618 15.2589 14.7542 14.9375 13.9174 14.7141C14.3276 13.2876 14.5429 11.8122 14.5574 10.3279H18.3586C18.2896 12.2851 17.5738 14.1643 16.3233 15.6715Z" fill="white"/>
</svg>
